<?xml version="1.0" standalone="no"?>
<!DOCTYPE svg PUBLIC "-//W3C//DTD SVG 20010904//EN"
 "http://www.w3.org/TR/2001/REC-SVG-20010904/DTD/svg10.dtd">
<svg version="1.0" xmlns="http://www.w3.org/2000/svg"
 width="412.000000pt" height="412.000000pt" viewBox="0 0 412.000000 412.000000"
 preserveAspectRatio="xMidYMid meet">
<metadata>
Created by potrace 1.16, written by Peter Selinger 2001-2019
</metadata>
<g transform="translate(0.000000,412.000000) scale(0.100000,-0.100000)"
fill="#000000" stroke="none">
<path d="M1181 3694 c-19 -13 -22 -24 -19 -55 l4 -39 -148 0 -148 0 0 -345 0
-345 -53 0 c-55 0 -77 -12 -77 -41 0 -42 25 -49 162 -49 l130 0 48 -35 c27
-20 74 -44 106 -55 79 -28 134 -80 84 -80 -18 0 -20 -7 -20 -79 0 -51 -4 -81
-12 -83 -13 -5 27 -621 43 -650 14 -27 43 -38 95 -38 42 0 61 9 187 91 76 49
140 89 142 87 2 -2 46 -99 100 -217 74 -163 93 -216 83 -221 -17 -10 -55 -40
-79 -62 -25 -23 -34 -82 -20 -129 13 -44 22 -47 58 -19 33 25 153 30 153 5 0
-15 18 -20 143 -34 43 -5 80 -11 82 -13 2 -1 5 -39 6 -84 3 -71 0 -84 -19
-109 -38 -48 -20 -105 33 -105 51 0 72 56 35 95 -18 20 -19 23 -5 35 11 9 15
9 15 1 0 -9 17 -10 60 -5 l60 7 15 -38 c10 -22 15 -58 13 -92 l-3 -55 -83 -24
c-161 -47 -207 -87 -199 -177 3 -32 12 -56 27 -72 22 -23 95 -46 128 -40 60
12 74 18 101 41 l30 25 29 -32 c23 -26 36 -32 70 -32 45 0 85 21 103 54 14 27
-2 46 -21 24 -16 -20 -34 -19 -51 1 -10 12 -15 63 -19 183 -4 131 -9 173 -23
200 -9 19 -17 36 -17 38 0 1 16 3 35 3 l35 0 0 105 0 104 38 6 c232 38 281 65
282 156 0 25 -7 97 -15 160 -9 63 -22 191 -30 284 -18 206 -72 558 -87 569 -1
2 -45 18 -96 36 -60 21 -100 41 -112 57 -23 30 -160 98 -160 80 -1 -20 -39 36
-45 65 -4 16 -16 34 -26 42 -23 16 -46 92 -55 181 l-6 61 41 19 c49 22 101 77
101 106 0 11 13 37 30 57 42 53 62 116 64 202 1 87 -15 123 -77 173 -30 25
-49 32 -97 35 -85 6 -141 -13 -243 -82 -78 -52 -92 -58 -115 -50 -55 19 -33
66 60 126 26 17 45 35 42 39 -7 12 -73 11 -133 -2 -169 -36 -257 -215 -156
-316 30 -30 39 -33 89 -33 31 0 72 7 91 14 44 19 44 11 -1 -74 -29 -56 -48
-77 -108 -121 -40 -30 -82 -59 -92 -66 -16 -10 -6 -12 59 -12 42 -1 77 -5 77
-9 0 -4 -20 -47 -44 -94 -25 -47 -42 -89 -39 -92 21 -21 230 7 292 39 l31 16
0 -33 c0 -49 -10 -77 -30 -83 -9 -3 -22 -23 -29 -44 -11 -37 -41 -76 -41 -53
0 16 -130 -49 -161 -80 -17 -17 -56 -36 -104 -50 l-77 -23 -100 -128 c-55 -71
-104 -125 -108 -120 -7 8 -33 181 -45 296 -6 53 -8 57 -32 57 -23 0 -24 3 -18
33 11 50 22 64 78 102 47 32 59 35 120 35 83 0 107 11 107 49 0 34 -14 41 -81
41 l-49 0 0 345 0 345 -148 0 -148 0 4 39 c3 31 0 42 -19 55 -13 9 -30 16 -39
16 -9 0 -26 -7 -39 -16z m791 -80 c-31 -24 -62 -71 -62 -93 0 -20 44 -51 73
-51 39 0 237 54 211 58 -11 2 -39 -1 -63 -7 -57 -12 -40 8 41 48 105 53 183
53 244 -1 51 -45 66 -81 66 -157 0 -54 -6 -76 -34 -130 -26 -52 -38 -65 -53
-63 -11 2 -35 6 -52 9 l-33 5 26 20 c36 29 22 35 -17 8 -17 -13 -54 -35 -81
-50 -63 -34 -49 -46 22 -19 92 35 153 11 120 -48 -21 -37 -73 -71 -142 -91
-63 -18 -79 -38 -24 -29 l34 5 7 -71 c4 -40 14 -97 24 -126 l16 -55 -43 -44
c-23 -25 -44 -43 -45 -41 -2 2 -15 21 -30 41 -27 36 -27 39 -17 103 6 36 8 70
4 76 -3 5 0 16 6 24 8 9 -9 5 -43 -10 -83 -38 -277 -71 -277 -47 0 4 15 37 34
72 50 95 53 110 23 110 -14 0 -38 3 -55 6 l-30 6 61 47 c54 40 68 58 110 141
30 61 56 99 72 108 44 23 27 20 -56 -9 -94 -34 -151 -37 -196 -9 -59 36 -62
124 -6 198 38 51 113 91 173 91 25 1 24 0 -8 -25z m-422 -374 l0 -330 -330 0
-330 0 0 330 0 330 330 0 330 0 0 -330z m128 -372 c3 -17 -24 -18 -452 -18
-373 0 -456 2 -456 13 0 8 3 17 7 20 3 4 207 6 452 5 415 -3 446 -4 449 -20z
m-537 -64 c-31 34 -9 35 39 2 20 -13 60 -29 90 -36 52 -11 59 -10 120 15 36
15 72 29 80 32 8 3 -4 -9 -28 -26 -43 -32 -72 -81 -72 -121 0 -32 -31 -38 -49
-9 -31 47 -58 66 -122 88 -35 12 -80 35 -99 52 l-35 31 50 -27 50 -28 -24 27z
m1029 -98 c36 -53 26 -65 -29 -36 -22 11 -43 20 -46 20 -3 0 -5 -33 -5 -74 l0
-74 50 21 c27 11 52 18 55 15 3 -3 8 -232 12 -510 l6 -506 -32 -17 c-18 -9
-34 -15 -36 -13 -1 2 -7 41 -13 88 -6 47 -24 180 -41 295 -36 252 -51 423 -51
597 0 127 0 129 30 170 17 22 30 47 30 55 0 29 40 12 70 -31z m169 21 c5 -13
21 -37 36 -55 l26 -32 -5 -212 c-5 -214 -20 -356 -73 -683 -14 -88 -28 -163
-32 -166 -3 -4 -18 -9 -32 -13 l-26 -6 -7 506 c-4 278 -5 508 -2 511 4 5 49
-10 110 -36 7 -3 -1 139 -9 147 -2 2 -21 -6 -44 -17 -22 -12 -43 -21 -46 -21
-14 0 -2 29 26 63 35 42 65 48 78 14z m-319 -146 l0 -89 -46 -37 c-25 -20 -46
-36 -48 -34 -1 2 -17 28 -35 57 -34 53 -34 53 -16 86 10 18 23 39 29 47 10 13
92 57 109 58 4 1 7 -39 7 -88z m457 57 c51 -24 61 -34 88 -84 17 -32 17 -32
-19 -88 l-36 -57 -45 38 -44 38 -1 88 c0 48 2 87 5 87 2 0 26 -10 52 -22z
m-1057 -45 c0 -16 3 -45 6 -65 l7 -38 -82 0 -81 0 0 65 0 65 75 0 75 0 0 -27z
m422 -45 c-8 -10 -1 -29 30 -77 l40 -63 -26 -27 c-14 -15 -26 -37 -26 -48 0
-50 75 -262 155 -437 83 -183 104 -254 105 -348 0 -27 -2 -28 -53 -28 -31 0
-61 6 -73 15 -10 8 -29 15 -41 15 -12 0 -25 6 -30 13 -22 34 -203 442 -203
458 0 24 -20 36 -20 12 -1 -12 -50 -52 -143 -115 -123 -85 -147 -98 -183 -98
-29 0 -46 6 -61 23 -19 20 -23 50 -42 312 -12 160 -21 296 -21 303 0 9 25 12
93 12 l93 0 18 -115 c15 -90 16 -121 7 -147 -14 -39 -22 -48 119 140 112 149
115 152 119 120 5 -32 5 -31 10 11 l6 44 65 22 c68 23 80 24 62 3z m850 -30
l56 -19 -9 -32 c-13 -47 -10 -67 5 -32 l13 30 11 -55 c30 -148 43 -244 77
-580 8 -80 20 -191 27 -247 10 -91 9 -105 -6 -127 -23 -36 -59 -52 -157 -71
-46 -9 -94 -18 -106 -20 -20 -5 -21 -1 -25 93 -2 59 1 100 7 105 5 4 29 6 53
4 39 -4 42 -3 29 12 -19 22 -67 197 -68 246 -1 40 -1 40 -10 10 -5 -16 -27
-76 -50 -132 -46 -112 -37 -105 -156 -119 -58 -6 -63 -5 -63 12 1 45 25 113
99 280 72 163 161 413 161 452 0 9 -12 28 -26 43 l-27 28 40 63 c22 35 38 69
35 77 -3 10 0 12 14 7 11 -5 44 -17 76 -28z m-663 -223 c6 -88 22 -235 34
-327 13 -92 20 -164 16 -160 -9 10 -124 269 -143 322 -19 54 -56 190 -56 207
0 10 131 126 136 120 1 -1 7 -74 13 -162z m491 77 l44 -39 -33 -109 c-37 -122
-180 -473 -181 -442 0 3 11 84 25 180 21 142 44 387 45 471 0 17 2 17 28 -2
15 -11 47 -37 72 -59z m27 -822 c9 -17 13 -82 13 -211 l0 -186 -77 -7 c-42 -3
-97 -6 -123 -6 l-46 0 -13 118 c-13 125 -34 247 -45 273 -6 14 8 19 101 32
145 20 174 18 190 -13z m-559 -36 c18 -12 22 -25 22 -67 0 -29 -4 -57 -8 -63
-4 -7 -41 -14 -82 -16 -41 -3 -82 -8 -91 -12 -23 -10 -33 36 -19 79 9 28 19
37 61 50 27 9 49 21 49 27 0 6 -7 7 -16 4 -8 -3 -12 -2 -9 4 10 15 68 12 93
-6z m260 -19 c5 -4 26 -175 21 -179 -2 -3 -32 -2 -67 1 l-62 6 0 62 c0 34 3
77 6 94 7 32 7 32 53 25 25 -4 47 -8 49 -9z m-124 -17 c0 -10 -1 -47 -2 -83
-2 -64 -2 -65 -29 -65 -16 0 -38 3 -51 6 -22 6 -23 9 -16 78 4 39 9 75 11 79
3 4 24 7 46 5 33 -2 42 -7 41 -20z m316 -650 c0 -75 -2 -84 -27 -110 -43 -45
-112 -38 -139 14 -31 59 10 122 102 158 27 10 52 19 57 20 4 0 7 -37 7 -82z"/>
<path d="M1210 1531 c0 -5 15 -12 34 -15 63 -12 67 -52 57 -491 -9 -365 -13
-389 -77 -478 -20 -27 -55 -59 -84 -75 -61 -33 -67 -56 -12 -46 83 15 145 46
203 103 105 104 124 203 114 621 -6 254 -5 278 12 310 10 20 32 41 51 49 17 8
32 18 32 23 0 4 -74 8 -165 8 -91 0 -165 -4 -165 -9z"/>
<path d="M3127 1330 c-36 -29 -52 -81 -37 -125 26 -78 120 -102 182 -46 29 26
33 35 33 81 0 46 -4 55 -33 81 -40 36 -105 40 -145 9z m131 -36 c59 -67 -17
-171 -97 -130 -40 21 -57 67 -41 106 25 61 94 73 138 24z"/>
<path d="M1750 1159 c-74 -30 -123 -98 -102 -144 9 -19 19 -25 45 -25 18 0 38
5 45 12 19 19 14 65 -9 87 l-21 19 24 15 c86 55 146 15 163 -108 8 -65 -3 -77
-86 -99 -89 -24 -164 -59 -182 -88 -42 -64 -25 -153 34 -184 65 -33 169 -16
217 37 19 20 20 20 25 1 17 -68 152 -73 187 -7 18 33 3 51 -22 29 -14 -14 -23
-16 -36 -8 -25 16 -30 47 -31 194 -1 158 -11 202 -56 247 -31 31 -37 33 -101
32 -38 0 -80 -5 -94 -10z m140 -333 c0 -77 -2 -85 -26 -110 -48 -48 -124 -29
-147 37 -10 27 17 81 51 106 27 19 94 48 115 50 4 1 7 -37 7 -83z"/>
<path d="M2884 1149 c-61 -18 -127 -71 -156 -128 -54 -103 -31 -258 48 -333
86 -81 255 -81 325 -2 16 19 49 78 49 89 0 13 -30 3 -42 -14 -23 -33 -87 -64
-133 -64 -93 0 -155 71 -163 187 -6 98 10 151 63 203 39 39 47 43 91 42 27 0
57 -4 67 -8 17 -6 17 -8 3 -20 -35 -29 -10 -101 35 -101 25 0 59 34 59 59 0
30 -48 79 -88 91 -44 12 -115 12 -158 -1z"/>
</g>
</svg>
