<?xml version="1.0" standalone="no"?>
<!DOCTYPE svg PUBLIC "-//W3C//DTD SVG 20010904//EN"
 "http://www.w3.org/TR/2001/REC-SVG-20010904/DTD/svg10.dtd">
<svg version="1.0" xmlns="http://www.w3.org/2000/svg"
 width="236.000000pt" height="214.000000pt" viewBox="0 0 236.000000 214.000000"
 preserveAspectRatio="xMidYMid meet">
<metadata>
Created by potrace 1.16, written by Peter Selinger 2001-2019
</metadata>
<g transform="translate(0.000000,214.000000) scale(0.100000,-0.100000)"
fill="#000000" stroke="none">
<path d="M240 2021 c-51 -11 -94 -36 -125 -73 -57 -67 -55 -40 -55 -797 l0
-699 28 -53 c20 -39 41 -62 77 -84 l48 -30 416 -5 c306 -4 422 -8 438 -17 31
-18 60 -63 68 -105 9 -45 27 -62 59 -54 18 4 25 15 30 47 4 23 16 55 28 72 40
56 51 57 480 57 393 0 393 0 444 24 54 25 94 69 113 125 8 24 11 236 11 728 0
758 2 733 -58 796 -15 16 -45 39 -67 50 -39 22 -49 22 -455 22 -456 0 -444 2
-512 -63 l-28 -26 -27 26 c-69 64 -60 63 -488 65 -214 1 -406 -2 -425 -6z
m832 -104 c15 -10 35 -30 45 -45 17 -25 18 -71 21 -790 1 -419 0 -762 -2 -762
-3 0 -22 10 -43 23 -37 22 -45 22 -455 27 l-418 5 -32 33 -33 32 -3 698 c-3
787 -7 747 73 784 37 17 69 18 430 16 358 -3 392 -4 417 -21z m1065 4 c77 -35
73 6 73 -776 l0 -695 -34 -38 -34 -37 -419 -5 c-411 -5 -419 -5 -456 -27 -21
-13 -40 -23 -43 -23 -2 0 -4 337 -4 748 l0 748 23 44 c41 81 38 80 472 80 352
0 383 -2 422 -19z"/>
<path d="M537 1780 c-129 -70 -207 -369 -136 -521 16 -34 43 -69 68 -89 l41
-33 0 -251 c0 -150 5 -267 11 -291 29 -105 131 -125 183 -35 20 33 21 54 24
305 l4 270 48 48 c68 66 84 119 78 251 -8 149 -55 261 -140 329 -50 40 -125
47 -181 17z m149 -105 c63 -68 106 -236 85 -337 -10 -47 -20 -63 -54 -94 -75
-68 -71 -50 -77 -361 -3 -155 -8 -285 -12 -289 -5 -4 -11 -4 -15 0 -5 4 -10
135 -13 291 -6 315 1 286 -82 363 -24 21 -42 50 -49 76 -25 92 15 273 78 346
47 54 91 56 139 5z"/>
<path d="M1365 1646 c-13 -19 -14 -29 -5 -45 10 -20 18 -21 238 -21 164 0 231
3 240 12 18 18 14 56 -7 68 -12 6 -106 10 -235 10 l-216 0 -15 -24z"/>
<path d="M1360 1421 c-12 -24 -4 -48 21 -61 23 -13 410 -13 443 0 18 6 26 17
26 33 0 45 -11 47 -252 47 -214 0 -228 -1 -238 -19z"/>
<path d="M1366 1198 c-20 -28 -20 -33 0 -52 13 -14 49 -16 238 -16 233 0 246
2 246 45 0 43 -13 45 -246 45 -219 0 -223 0 -238 -22z"/>
<path d="M1360 970 c-8 -14 -8 -26 0 -40 11 -20 19 -20 248 -18 l237 3 0 35 0
35 -237 3 c-229 2 -237 2 -248 -18z"/>
<path d="M1366 754 c-21 -20 -20 -37 2 -57 16 -15 48 -17 238 -17 231 0 244 2
244 45 0 43 -13 45 -246 45 -189 0 -225 -2 -238 -16z"/>
</g>
</svg>
