<?xml version="1.0" encoding="UTF-8" standalone="no"?>
<svg
   xmlns:dc="http://purl.org/dc/elements/1.1/"
   xmlns:cc="http://creativecommons.org/ns#"
   xmlns:rdf="http://www.w3.org/1999/02/22-rdf-syntax-ns#"
   xmlns:svg="http://www.w3.org/2000/svg"
   xmlns="http://www.w3.org/2000/svg"
   id="svg40"
   preserveAspectRatio="xMidYMid meet"
   viewBox="0 0 512.000000 512.000000"
   height="512.000000pt"
   width="512.000000pt"
   version="1.0">
  <defs
     id="defs44" />
  <metadata
     id="metadata2">
Created by potrace 1.16, written by Peter Selinger 2001-2019
<rdf:RDF>
  <cc:Work
     rdf:about="">
    <dc:format>image/svg+xml</dc:format>
    <dc:type
       rdf:resource="http://purl.org/dc/dcmitype/StillImage" />
  </cc:Work>
</rdf:RDF>
</metadata>
  <g
     id="g38"
     stroke="none"
     fill="#000000"
     transform="translate(0.000000,512.000000) scale(0.100000,-0.100000)">
    <path
       id="path4"
       d="M203 4958 c-174 -172 -196 -198 -191 -231 3 -19 32 5 192 163 103 102 192 193 197 203 8 14 5 17 -17 17 -21 0 -60 -33 -181 -152z" />
    <path
       id="path6"
       d="M303 4858 c-140 -139 -264 -265 -275 -281 -10 -15 -18 -37 -16 -50 3 -18 49 23 292 263 158 157 292 293 297 303 8 14 5 17 -17 17 -22 0 -75 -47 -281 -252z" />
    <path
       id="path8"
       d="M402 4758 c-194 -194 -362 -365 -373 -381 -11 -15 -19 -37 -17 -50 4 -18 67 40 392 363 213 212 392 393 397 403 8 14 5 17 -18 17 -22 0 -89 -62 -381 -352z" />
    <path
       id="path10"
       d="M502 4658 c-249 -249 -462 -465 -473 -481 -11 -15 -19 -37 -17 -50 4 -18 84 57 492 463 268 267 492 493 497 503 8 14 5 17 -18 17 -22 0 -104 -76 -481 -452z" />
    <path
       id="path12"
       d="M602 4558 c-304 -304 -562 -565 -573 -581 -11 -15 -19 -37 -17 -50 4 -18 101 75 592 563 323 322 592 593 597 603 8 14 5 17 -18 17 -23 0 -118 -91 -581 -552z" />
    <path
       id="path14"
       d="M702 4458 c-359 -359 -662 -665 -673 -681 -11 -15 -19 -37 -17 -50 4 -18 118 92 692 663 378 377 692 693 697 703 8 14 5 17 -18 17 -23 0 -133 -106 -681 -652z" />
    <path
       id="path16"
       d="M802 4358 c-414 -414 -762 -765 -773 -781 -11 -15 -19 -37 -17 -50 4 -18 136 109 792 763 433 432 792 793 797 803 8 14 5 17 -18 17 -23 0 -148 -120 -781 -752z" />
    <path
       id="path18"
       d="M902 4258 c-469 -469 -862 -865 -873 -881 -11 -15 -19 -37 -17 -50 4 -18 153 126 892 863 488 487 892 893 897 903 8 14 5 17 -18 17 -23 0 -162 -135 -881 -852z" />
    <path
       id="path20"
       d="M1002 4158 c-524 -524 -962 -965 -973 -981 -11 -15 -19 -37 -17 -50 4 -18 170 144 992 963 543 542 992 993 997 1003 8 14 5 17 -18 17 -23 0 -177 -149 -981 -952z" />
    <path
       id="path22"
       d="M1102 4058 c-579 -579 -1062 -1065 -1073 -1081 -11 -15 -19 -37 -17 -50 4 -18 91 64 532 503 455 453 524 518 502 473 -14 -28 -30 -73 -36 -100 -10 -46 -32 -69 -505 -543 -409 -410 -495 -501 -495 -523 0 -15 3 -27 7 -27 4 0 227 219 495 487 l488 488 0 -65 0 -65 -495 -495 c-409 -410 -495 -501 -495 -523 0 -15 3 -27 7 -27 4 0 227 219 495 487 l488 488 0 -65 0 -65 -495 -495 c-409 -410 -495 -501 -495 -523 0 -15 3 -27 7 -27 4 0 227 219 495 487 l488 488 0 -65 0 -65 -495 -495 c-409 -410 -495 -501 -495 -523 0 -15 3 -27 7 -27 4 0 227 219 495 487 l488 488 0 -65 0 -65 -495 -495 c-409 -410 -495 -501 -495 -523 0 -15 3 -27 7 -27 4 0 227 219 495 487 l488 488 0 -65 0 -65 -495 -495 c-409 -410 -495 -501 -495 -523 0 -15 3 -27 7 -27 4 0 227 219 495 487 l488 488 0 -65 0 -65 -495 -495 c-409 -410 -495 -501 -495 -523 0 -15 3 -27 7 -27 4 0 227 219 495 487 l488 488 0 -65 0 -65 -495 -495 c-409 -410 -495 -501 -495 -523 0 -15 3 -27 7 -27 4 0 227 219 495 487 l488 488 0 -65 0 -65 -495 -495 c-409 -410 -495 -501 -495 -523 0 -15 3 -27 7 -27 4 0 227 219 495 487 l488 488 0 -65 0 -65 -495 -495 c-409 -410 -495 -501 -495 -523 0 -15 3 -27 7 -27 4 0 227 219 495 487 l488 488 0 -65 0 -65 -495 -495 c-409 -410 -495 -501 -495 -523 0 -15 3 -27 7 -27 4 0 227 219 495 487 l488 488 0 -65 0 -65 -495 -495 c-409 -410 -495 -501 -495 -523 0 -15 3 -27 7 -27 4 0 227 219 495 487 l488 488 0 -65 0 -65 -495 -495 c-409 -410 -495 -501 -495 -523 0 -15 3 -27 7 -27 4 0 227 219 495 487 l488 488 0 -65 0 -65 -495 -495 c-409 -410 -495 -501 -495 -523 0 -15 3 -27 7 -27 4 0 227 219 495 487 l488 488 0 -65 0 -65 -461 -460 c-253 -253 -465 -468 -470 -477 -8 -15 -5 -18 18 -18 22 0 102 75 469 441 l442 441 4 -58 4 -59 -373 -375 c-205 -207 -373 -379 -373 -383 0 -4 12 -7 27 -7 22 0 91 64 380 352 194 193 354 350 356 347 1 -2 11 -22 20 -43 l18 -39 -300 -302 c-166 -165 -301 -304 -301 -308 0 -4 12 -7 27 -7 21 0 82 55 317 288 l291 288 31 -32 31 -32 -239 -239 c-132 -131 -244 -246 -249 -256 -8 -14 -5 -17 17 -17 22 0 73 46 269 241 l242 240 39 -18 c21 -9 41 -19 43 -20 3 -2 -91 -99 -207 -216 -117 -117 -212 -216 -212 -220 0 -4 12 -7 27 -7 21 0 70 43 242 213 l216 213 59 -4 58 -4 -201 -202 c-110 -111 -201 -205 -201 -209 0 -4 12 -7 27 -7 21 0 69 43 238 210 l211 210 64 0 64 0 -202 -203 c-111 -112 -202 -206 -202 -210 0 -4 12 -7 27 -7 21 0 69 43 238 210 l211 210 64 0 64 0 -202 -203 c-111 -112 -202 -206 -202 -210 0 -4 12 -7 27 -7 21 0 69 43 238 210 l211 210 64 0 64 0 -202 -203 c-111 -112 -202 -206 -202 -210 0 -4 12 -7 27 -7 21 0 69 43 238 210 l211 210 64 0 64 0 -202 -203 c-111 -112 -202 -206 -202 -210 0 -4 12 -7 27 -7 21 0 69 43 238 210 l211 210 64 0 64 0 -202 -203 c-111 -112 -202 -206 -202 -210 0 -4 12 -7 27 -7 21 0 69 43 238 210 l211 210 64 0 64 0 -202 -203 c-111 -112 -202 -206 -202 -210 0 -4 12 -7 27 -7 21 0 69 43 238 210 l211 210 64 0 64 0 -202 -203 c-111 -112 -202 -206 -202 -210 0 -4 12 -7 27 -7 21 0 69 43 238 210 l211 210 64 0 64 0 -202 -203 c-111 -112 -202 -206 -202 -210 0 -4 12 -7 27 -7 21 0 69 43 238 210 l211 210 64 0 64 0 -202 -203 c-111 -112 -202 -206 -202 -210 0 -4 12 -7 27 -7 21 0 69 43 238 210 l211 210 64 0 64 0 -202 -203 c-111 -112 -202 -206 -202 -210 0 -4 12 -7 27 -7 21 0 69 43 238 210 l211 210 64 0 64 0 -202 -203 c-111 -112 -202 -206 -202 -210 0 -4 12 -7 27 -7 21 0 69 43 237 209 l211 209 69 5 68 5 -208 -211 c-177 -179 -206 -212 -187 -215 13 -2 35 6 50 16 34 25 1557 1548 1579 1580 8 12 14 32 12 45 -4 18 -81 -54 -466 -438 l-463 -460 7 70 6 70 459 460 c379 380 459 466 459 488 0 15 -3 27 -7 27 -4 0 -211 -204 -460 -452 l-453 -453 0 65 0 65 460 460 c380 380 460 466 460 488 0 15 -3 27 -7 27 -4 0 -211 -204 -460 -452 l-453 -453 0 65 0 65 460 460 c380 380 460 466 460 488 0 15 -3 27 -7 27 -4 0 -211 -204 -460 -452 l-453 -453 0 65 0 65 460 460 c380 380 460 466 460 488 0 15 -3 27 -7 27 -4 0 -211 -204 -460 -452 l-453 -453 0 65 0 65 460 460 c380 380 460 466 460 488 0 15 -3 27 -7 27 -4 0 -211 -204 -460 -452 l-453 -453 0 65 0 65 460 460 c380 380 460 466 460 488 0 15 -3 27 -7 27 -4 0 -211 -204 -460 -452 l-453 -453 0 65 0 65 460 460 c380 380 460 466 460 488 0 15 -3 27 -7 27 -4 0 -211 -204 -460 -452 l-453 -453 0 65 0 65 460 460 c380 380 460 466 460 488 0 15 -3 27 -7 27 -4 0 -211 -204 -460 -452 l-453 -453 0 65 0 65 460 460 c380 380 460 466 460 488 0 15 -3 27 -7 27 -4 0 -211 -204 -460 -452 l-453 -453 0 65 0 65 460 460 c380 380 460 466 460 488 0 15 -3 27 -7 27 -4 0 -211 -204 -460 -452 l-453 -453 0 65 0 65 460 460 c380 380 460 466 460 488 0 15 -3 27 -7 27 -4 0 -211 -204 -460 -452 l-453 -453 0 65 0 65 460 460 c380 380 460 466 460 488 0 15 -3 27 -7 27 -4 0 -211 -204 -460 -452 l-453 -453 0 65 0 65 460 460 c380 380 460 466 460 488 0 15 -3 27 -7 27 -4 0 -211 -204 -460 -452 l-453 -453 0 65 0 65 460 460 c380 380 460 466 460 488 0 15 -3 27 -7 27 -4 0 -211 -204 -460 -452 l-453 -453 0 65 0 65 460 460 c383 383 460 466 460 488 0 23 -3 26 -17 18 -10 -5 -216 -208 -458 -450 -242 -243 -443 -441 -447 -441 -5 0 -8 12 -9 28 0 15 -4 36 -9 47 -7 17 61 89 466 495 391 393 474 481 474 503 0 15 -3 27 -7 27 -4 0 -222 -214 -484 -476 l-475 -475 -26 38 -26 38 509 510 c421 423 509 516 509 538 0 15 -3 27 -7 27 -4 0 -242 -234 -528 -519 l-520 -520 -35 30 -35 29 508 508 c279 279 507 511 507 515 0 4 -12 7 -27 7 -22 0 -115 -87 -533 -504 l-505 -504 -48 17 -47 16 471 470 c258 259 475 478 480 488 8 14 5 17 -18 17 -23 0 -108 -81 -513 -485 l-485 -485 -65 0 -65 0 478 478 c262 263 477 481 477 485 0 4 -12 7 -27 7 -22 0 -111 -84 -513 -485 l-485 -485 -65 0 -65 0 478 478 c262 263 477 481 477 485 0 4 -12 7 -27 7 -22 0 -111 -84 -513 -485 -467 -466 -487 -485 -523 -485 -36 0 -37 -1 -37 -38 0 -32 -7 -45 -45 -82 l-45 -44 0 64 0 65 486 485 c267 267 490 493 495 503 8 14 5 17 -18 17 -22 0 -106 -78 -495 -467 -463 -463 -468 -467 -468 -430 0 34 -2 37 -27 37 -24 0 31 58 395 423 232 232 422 426 422 430 0 4 -12 7 -27 7 -22 0 -103 -76 -458 -430 l-431 -430 -52 0 c-35 0 -52 4 -52 13 0 6 180 192 401 412 220 220 405 408 410 418 8 14 5 17 -18 17 -22 0 -94 -67 -414 -386 -213 -212 -389 -382 -391 -378 -3 5 -11 26 -18 48 l-12 38 331 332 c182 182 331 335 331 339 0 4 -12 7 -27 7 -22 0 -86 -59 -345 -317 l-318 -317 -32 32 -33 32 278 278 c152 153 277 281 277 285 0 4 -12 7 -27 7 -21 0 -79 -52 -297 -268 l-271 -268 -42 22 -41 21 230 229 c126 126 234 237 239 247 8 14 5 17 -17 17 -22 0 -73 -45 -268 -239 l-241 -239 -58 5 -59 6 226 226 c124 125 226 230 226 234 0 4 -12 7 -27 7 -21 0 -76 -49 -277 -248 -169 -166 -266 -255 -298 -271 -56 -28 -141 -114 -165 -168 -9 -21 -46 -68 -82 -105 l-65 -68 -63 0 -63 0 0 -63 c0 -61 -1 -64 -45 -107 l-45 -44 0 52 c0 35 -4 52 -12 52 -7 0 202 215 465 478 262 263 477 481 477 485 0 4 -12 7 -27 7 -22 0 -111 -84 -513 -485 l-485 -485 -65 0 -65 0 478 478 c262 263 477 481 477 485 0 4 -12 7 -27 7 -22 0 -111 -84 -513 -485 l-485 -485 -65 0 -65 0 478 478 c262 263 477 481 477 485 0 4 -12 7 -27 7 -22 0 -111 -84 -513 -485 l-485 -485 -60 -15 c-33 -9 -80 -27 -105 -41 -32 -18 102 122 473 493 284 285 517 522 517 526 0 4 -12 7 -27 7 -23 0 -198 -170 -1081 -1052z m1575 388 c4 -4 -35 -49 -87 -101 l-95 -95 -57 0 c-32 0 -58 3 -58 7 0 4 44 52 98 106 l97 98 48 -4 c26 -2 50 -7 54 -11z m88 -68 l26 -31 -47 -49 c-48 -48 -49 -48 -113 -48 l-66 0 80 80 c44 44 83 80 86 80 4 0 19 -14 34 -32z m-1167 -825 l-373 -373 -3 62 -3 62 303 303 c251 251 308 303 330 303 24 0 28 4 28 27 0 19 14 41 43 71 l42 43 3 -62 3 -63 -373 -373z m-208 192 l-165 -165 -3 62 -3 62 103 103 103 103 65 0 65 0 -165 -165z m100 -100 l-265 -265 -3 62 -3 62 203 203 203 203 65 0 65 0 -265 -265z m1685 -115 l-380 -380 -65 0 -65 0 380 380 380 380 65 0 65 0 -380 -380z m200 0 l-380 -380 -65 0 -65 0 380 380 380 380 65 0 65 0 -380 -380z m525 332 c0 -4 -159 -166 -352 -359 l-353 -353 -65 0 -65 0 379 379 380 380 38 -20 c21 -11 38 -23 38 -27z m-2152 -359 c-199 -199 -226 -223 -255 -223 -31 0 -33 -2 -33 -33 0 -28 -16 -48 -120 -152 l-120 -120 0 65 0 65 373 373 372 372 3 -62 3 -62 -223 -223z m2207 287 c8 -16 15 -37 15 -47 0 -10 -125 -143 -287 -305 l-288 -288 -65 0 -65 0 335 335 c184 184 336 335 337 335 1 0 9 -13 18 -30z m-2020 -300 l-210 -210 -65 0 -65 0 210 210 210 210 65 0 65 0 -210 -210z m200 0 l-210 -210 -65 0 -65 0 210 210 210 210 65 0 65 0 -210 -210z m110 -90 l-300 -300 -3 62 -3 62 238 238 238 238 65 0 65 0 -300 -300z m225 25 l-275 -275 -65 0 -65 0 275 275 275 275 65 0 65 0 -275 -275z m200 0 l-275 -275 -65 0 -65 0 275 275 275 275 65 0 65 0 -275 -275z m200 0 l-275 -275 -65 0 -65 0 275 275 275 275 65 0 65 0 -275 -275z m913 -87 l-188 -188 -65 0 -65 0 250 250 250 250 3 -62 3 -62 -188 -188z m58 -142 l-131 -131 0 43 c0 37 -3 42 -22 42 -18 0 10 33 127 150 l150 150 3 -62 3 -62 -130 -130z m-288 -488 l-418 -418 -65 0 -65 0 320 320 c289 289 323 320 352 320 30 0 33 3 33 32 0 28 17 50 128 161 l127 127 3 -62 3 -62 -418 -418z m-2212 188 l-121 -121 0 65 0 65 118 118 117 117 3 -62 3 -62 -120 -120z m2312 -288 l-318 -318 -65 0 -65 0 380 380 380 380 3 -62 3 -62 -318 -318z m-2312 88 l-121 -121 0 65 0 65 118 118 117 117 3 -62 3 -62 -120 -120z m579 -21 l-255 -255 -65 0 -65 0 190 190 c104 105 195 190 202 190 7 0 13 5 13 12 0 7 23 36 52 65 l52 53 66 0 65 0 -255 -255z m200 0 l-255 -255 -65 0 -65 0 255 255 255 255 65 0 65 0 -255 -255z m140 -60 l-315 -315 -3 62 -3 62 253 253 253 253 65 0 65 0 -315 -315z m195 -5 l-320 -320 -47 0 -48 0 0 -48 c0 -44 -4 -52 -50 -97 l-50 -49 0 64 0 65 352 352 353 353 65 0 65 0 -320 -320z m200 0 l-320 -320 -65 0 -65 0 320 320 320 320 65 0 65 0 -320 -320z m200 0 l-320 -320 -65 0 -65 0 320 320 320 320 65 0 65 0 -320 -320z m200 0 l-320 -320 -65 0 -65 0 320 320 320 320 65 0 65 0 -320 -320z m200 0 l-320 -320 -65 0 -65 0 320 320 320 320 65 0 65 0 -320 -320z m498 -102 l-218 -218 -65 0 -65 0 280 280 280 280 3 -62 3 -62 -218 -218z m-2318 82 l-210 -210 -3 62 -3 62 148 148 148 148 65 0 65 0 -210 -210z m100 -100 l-310 -310 -3 62 -3 62 248 248 248 248 65 0 65 0 -310 -310z m2308 -92 c-70 -70 -129 -124 -131 -118 -2 5 -27 10 -55 10 l-52 0 180 180 180 180 3 -62 3 -62 -128 -128z m-315 -515 l-443 -443 -65 0 -65 0 315 315 315 315 62 0 63 0 0 62 0 63 128 128 127 127 3 -62 3 -62 -443 -443z m-2187 213 l-121 -121 0 65 0 65 118 118 117 117 3 -62 3 -62 -120 -120z m2287 -313 l-343 -343 -65 0 -65 0 405 405 405 405 3 -62 3 -62 -343 -343z m-2287 113 l-121 -121 0 65 0 65 118 118 117 117 3 -62 3 -62 -120 -120z m737 174 c37 0 36 -1 -213 -250 l-250 -250 -65 0 -65 0 185 185 c182 182 185 185 227 185 l43 0 0 42 c0 37 6 48 48 91 46 47 47 47 50 23 3 -23 8 -26 40 -26z m-13 -250 l-250 -250 -65 0 -65 0 250 250 250 250 65 0 65 0 -250 -250z m165 -35 l-285 -285 -3 35 c-3 31 -7 35 -30 35 -23 0 7 34 223 250 l250 250 65 0 65 0 -285 -285z m170 -30 c-227 -227 -321 -315 -337 -315 -17 0 -23 -6 -23 -23 0 -14 -19 -41 -50 -72 l-50 -49 0 64 0 65 322 322 323 323 65 0 65 0 -315 -315z m200 0 l-315 -315 -65 0 -65 0 315 315 315 315 65 0 65 0 -315 -315z m200 0 l-315 -315 -65 0 -65 0 315 315 315 315 65 0 65 0 -315 -315z m200 0 l-315 -315 -65 0 -65 0 315 315 315 315 65 0 65 0 -315 -315z m200 0 l-315 -315 -65 0 -65 0 315 315 315 315 65 0 65 0 -315 -315z m528 -72 l-243 -243 -65 0 -65 0 305 305 305 305 3 -62 3 -62 -243 -243z m-2323 77 l-180 -180 -3 62 -3 62 118 118 118 118 65 0 65 0 -180 -180z m100 -100 l-280 -280 -3 62 -3 62 218 218 218 218 65 0 65 0 -280 -280z m2323 -77 l-143 -143 -65 0 -65 0 205 205 205 205 3 -62 3 -62 -143 -143z m13 -187 l-131 -131 0 65 0 65 128 128 127 127 3 -62 3 -62 -130 -130z m-2500 -100 l-121 -121 0 65 0 65 118 118 117 117 3 -62 3 -62 -120 -120z m2287 -313 l-343 -343 -65 0 -65 0 405 405 405 405 3 -62 3 -62 -343 -343z m-2287 113 l-121 -121 0 65 0 65 118 118 117 117 3 -62 3 -62 -120 -120z m2387 -213 l-243 -243 -65 0 -65 0 305 305 305 305 3 -62 3 -62 -243 -243z m-1753 47 l-290 -290 -65 0 -65 0 290 290 290 290 65 0 65 0 -290 -290z m200 0 l-290 -290 -65 0 -65 0 290 290 290 290 65 0 65 0 -290 -290z m200 0 l-290 -290 -65 0 -65 0 290 290 290 290 65 0 65 0 -290 -290z m200 0 l-290 -290 -65 0 -65 0 290 290 290 290 65 0 65 0 -290 -290z m200 0 l-290 -290 -65 0 -65 0 290 290 290 290 65 0 65 0 -290 -290z m200 0 l-290 -290 -65 0 -65 0 290 290 290 290 65 0 65 0 -290 -290z m200 0 l-290 -290 -65 0 -65 0 290 290 290 290 65 0 65 0 -290 -290z m200 0 l-290 -290 -65 0 -65 0 290 290 290 290 65 0 65 0 -290 -290z m-1877 160 l37 0 -150 -150 c-162 -163 -161 -162 -164 -70 -1 31 10 46 117 153 106 107 117 115 120 92 3 -22 8 -25 40 -25z m31 -205 c-216 -217 -220 -220 -254 -168 l-17 26 173 173 174 174 65 0 65 0 -206 -205z m181 -20 c-238 -238 -232 -234 -310 -219 l-32 7 218 218 219 219 65 0 65 0 -225 -225z m2118 -82 l-143 -143 -65 0 -65 0 205 205 205 205 3 -62 3 -62 -143 -143z" />
    <path
       id="path24"
       d="M4396 750 c-394 -393 -722 -723 -727 -732 -8 -15 -5 -18 18 -18 23 0 137 110 711 683 376 375 692 694 703 710 11 15 19 37 17 50 -4 18 -124 -97 -722 -693z" />
    <path
       id="path26"
       d="M4496 650 c-339 -338 -622 -623 -627 -632 -8 -15 -5 -18 18 -18 23 0 123 95 611 583 321 320 592 594 603 610 11 15 19 37 17 50 -4 18 -106 -80 -622 -593z" />
    <path
       id="path28"
       d="M4596 550 c-284 -283 -522 -523 -527 -533 -8 -14 -5 -17 18 -17 23 0 108 81 511 483 266 265 492 494 503 510 11 15 19 37 17 50 -4 18 -89 -62 -522 -493z" />
    <path
       id="path30"
       d="M4696 450 c-229 -228 -422 -423 -427 -432 -8 -15 -5 -18 18 -18 22 0 93 66 411 383 211 210 392 394 403 410 11 15 19 37 17 50 -4 18 -72 -45 -422 -393z" />
    <path
       id="path32"
       d="M4796 350 c-174 -173 -322 -323 -327 -332 -8 -15 -5 -18 17 -18 23 0 80 52 312 282 156 156 293 295 303 311 11 15 19 37 17 50 -4 18 -54 -28 -322 -293z" />
    <path
       id="path34"
       d="M4896 250 c-119 -118 -222 -223 -227 -232 -8 -15 -5 -18 17 -18 21 0 65 37 211 183 205 202 226 227 221 260 -3 19 -37 -11 -222 -193z" />
    <path
       id="path36"
       d="M4996 150 c-136 -133 -149 -150 -111 -150 18 0 49 23 111 82 102 98 127 130 122 161 -3 19 -19 7 -122 -93z" />
  </g>
</svg>
