<?xml version="1.0" standalone="no"?>
<!DOCTYPE svg PUBLIC "-//W3C//DTD SVG 20010904//EN"
 "http://www.w3.org/TR/2001/REC-SVG-20010904/DTD/svg10.dtd">
<svg version="1.0" xmlns="http://www.w3.org/2000/svg"
 width="272.000000pt" height="185.000000pt" viewBox="0 0 272.000000 185.000000"
 preserveAspectRatio="xMidYMid meet">
<metadata>
Created by potrace 1.16, written by Peter Selinger 2001-2019
</metadata>
<g transform="translate(0.000000,185.000000) scale(0.100000,-0.100000)"
fill="#000000" stroke="none">
<path d="M640 1335 l0 -315 315 0 315 0 0 315 0 315 -315 0 -315 0 0 -315z
m540 0 l0 -225 -225 0 -225 0 0 225 0 225 225 0 225 0 0 -225z"/>
<path d="M870 1330 l0 -90 85 0 85 0 0 90 0 90 -85 0 -85 0 0 -90z"/>
<path d="M1450 1335 l0 -315 320 0 320 0 0 315 0 315 -320 0 -320 0 0 -315z
m550 0 l0 -225 -230 0 -230 0 0 225 0 225 230 0 230 0 0 -225z"/>
<path d="M1680 1330 l0 -90 90 0 90 0 0 90 0 90 -90 0 -90 0 0 -90z"/>
<path d="M640 518 l0 -318 315 0 315 0 0 315 c0 293 -1 315 -17 316 -10 1
-152 2 -315 3 l-298 2 0 -318z m540 -3 l0 -225 -225 0 -225 0 0 225 0 225 225
0 225 0 0 -225z"/>
<path d="M870 520 l0 -90 85 0 85 0 0 90 0 90 -85 0 -85 0 0 -90z"/>
<path d="M1500 632 l0 -158 155 1 155 0 0 158 0 157 -155 0 -155 0 0 -158z
m225 57 c4 -5 4 -37 0 -70 l-7 -59 -64 0 -64 0 0 70 0 70 64 0 c36 0 68 -5 71
-11z"/>
<path d="M1860 655 l0 -135 45 0 45 0 0 135 0 135 -45 0 -45 0 0 -135z"/>
<path d="M2000 540 l0 -250 -250 0 -250 0 0 -45 0 -45 293 2 292 3 3 293 4
292 -46 0 -46 0 0 -250z"/>
<path d="M1500 385 l0 -45 135 0 135 0 0 45 0 45 -135 0 -135 0 0 -45z"/>
</g>
</svg>
