<?xml version="1.0" standalone="no"?>
<!DOCTYPE svg PUBLIC "-//W3C//DTD SVG 20010904//EN"
 "http://www.w3.org/TR/2001/REC-SVG-20010904/DTD/svg10.dtd">
<svg version="1.0" xmlns="http://www.w3.org/2000/svg"
 width="674.000000pt" height="980.000000pt" viewBox="0 0 674.000000 980.000000"
 preserveAspectRatio="xMidYMid meet">
<metadata>
Created by potrace 1.16, written by Peter Selinger 2001-2019
</metadata>
<g transform="translate(0.000000,980.000000) scale(0.100000,-0.100000)"
fill="#000000" stroke="none">
<path d="M3155 9788 c-676 -69 -1286 -504 -1584 -1129 -91 -190 -156 -422
-180 -641 -6 -54 -11 -211 -11 -351 l0 -254 -42 -12 c-95 -28 -193 -85 -259
-151 -114 -112 -156 -238 -145 -435 24 -461 326 -955 654 -1071 37 -13 74 -24
83 -24 11 0 40 -43 82 -119 134 -245 283 -458 432 -618 l76 -83 -22 -87 c-34
-139 -85 -278 -150 -410 l-59 -123 -53 0 c-185 0 -536 -66 -777 -146 -695
-231 -1121 -670 -1190 -1226 -8 -65 -10 -324 -8 -848 3 -746 4 -756 26 -835
47 -169 134 -316 272 -459 391 -406 1162 -691 2045 -756 101 -8 471 -10 1125
-7 1038 4 1030 4 1358 57 708 115 1294 372 1615 710 139 146 217 280 270 468
22 76 22 85 22 872 0 880 1 867 -67 1058 -144 409 -503 734 -1035 935 -224 86
-553 158 -778 172 -174 10 -153 -3 -223 143 -61 129 -119 292 -147 415 l-16
68 57 62 c149 161 308 383 423 592 33 61 67 122 75 138 10 17 23 27 38 27 13
0 54 11 91 24 270 96 512 419 622 831 33 121 45 328 25 427 -36 188 -164 322
-380 397 l-55 19 -6 304 c-7 316 -16 399 -64 588 -61 245 -176 482 -335 695
-419 559 -1101 855 -1805 783z m1160 -2087 c176 -140 399 -274 600 -362 l130
-57 3 -173 c7 -376 -51 -691 -192 -1041 -240 -600 -635 -1075 -1061 -1279
-379 -181 -740 -127 -1130 171 -105 80 -283 259 -377 380 -304 393 -518 891
-582 1358 -10 69 -16 185 -16 301 l0 189 78 6 c502 40 830 112 1242 273 281
109 644 308 856 467 l109 82 130 -126 c72 -70 166 -155 210 -189z m-2936 -759
c0 -218 45 -492 120 -732 11 -35 19 -66 17 -68 -8 -7 -96 123 -139 205 -120
233 -172 523 -114 634 19 35 95 109 112 109 2 0 4 -67 4 -148z m4041 115 c77
-62 100 -142 81 -288 -21 -173 -90 -370 -176 -505 -39 -61 -115 -157 -121
-152 -1 2 12 53 31 113 70 234 107 456 120 728 8 151 8 151 65 104z m-2615
-2592 c518 -80 633 -82 1030 -19 190 31 372 41 431 25 131 -35 187 -140 186
-346 0 -129 -24 -249 -84 -429 -157 -470 -533 -1132 -802 -1415 -74 -77 -147
-131 -178 -131 -163 0 -624 669 -894 1296 -58 137 -136 372 -160 484 -24 113
-24 294 -1 372 26 85 83 143 167 169 43 13 201 10 305 -6z m-1730 -870 c80
-21 144 -58 205 -117 115 -113 176 -248 226 -498 16 -77 18 -202 21 -1304 3
-991 1 -1218 -9 -1214 -7 3 -53 18 -103 33 -560 170 -965 462 -1077 775 l-23
65 0 795 0 795 28 90 c50 161 145 314 269 437 85 84 157 135 208 146 69 15
190 14 255 -3z m4885 -7 c55 -24 180 -138 254 -229 80 -100 145 -223 183 -345
l28 -89 0 -800 0 -800 -23 -60 c-87 -229 -310 -435 -647 -600 -136 -66 -349
-149 -473 -183 l-73 -21 4 1212 c3 1187 4 1214 25 1322 65 338 207 539 423
600 69 19 248 15 299 -7z m-2491 -1776 c42 -31 64 -69 68 -119 5 -53 -18 -98
-68 -136 -63 -46 -159 -26 -206 43 -30 43 -31 119 -3 165 43 69 147 92 209 47z
m2 -615 c96 -64 87 -212 -15 -261 -106 -50 -216 22 -216 142 0 51 3 57 44 98
41 41 47 44 98 44 41 0 64 -6 89 -23z"/>
<path d="M2660 4349 c-46 -18 -90 -71 -108 -129 -13 -45 -16 -100 -16 -315 0
-296 8 -346 66 -402 45 -43 76 -53 166 -53 260 0 562 197 599 390 l6 35 18
-52 c66 -196 322 -361 574 -370 89 -4 105 -2 145 19 36 19 51 35 75 83 l30 60
0 290 0 290 -30 60 c-24 48 -39 64 -75 83 -40 21 -56 23 -145 19 -248 -9 -501
-169 -570 -360 l-22 -60 -7 34 c-28 150 -234 318 -457 373 -72 18 -210 20
-249 5z"/>
</g>
</svg>
